/* XPM */
static char * gdmap_icon_xpm[] = {
"32 32 133 2",
"  	c None",
". 	c #001800",
"+ 	c #001A00",
"@ 	c #001B00",
"# 	c #001D00",
"$ 	c #001F00",
"% 	c #002100",
"& 	c #002300",
"* 	c #002500",
"= 	c #002700",
"- 	c #002800",
"; 	c #002900",
"> 	c #002A00",
", 	c #001C00",
"' 	c #002000",
") 	c #002200",
"! 	c #002400",
"~ 	c #002B00",
"{ 	c #002C00",
"] 	c #001E00",
"^ 	c #002D00",
"/ 	c #002E00",
"( 	c #002F00",
"_ 	c #003000",
": 	c #003200",
"< 	c #003300",
"[ 	c #001900",
"} 	c #002600",
"| 	c #003100",
"1 	c #003400",
"2 	c #003800",
"3 	c #003900",
"4 	c #003700",
"5 	c #003500",
"6 	c #003600",
"7 	c #003F00",
"8 	c #004300",
"9 	c #004100",
"0 	c #003C00",
"a 	c #003D00",
"b 	c #003B00",
"c 	c #004D00",
"d 	c #005200",
"e 	c #005000",
"f 	c #004B00",
"g 	c #004600",
"h 	c #003A00",
"i 	c #004000",
"j 	c #004400",
"k 	c #004200",
"l 	c #005100",
"m 	c #006100",
"n 	c #006700",
"o 	c #005F00",
"p 	c #005500",
"q 	c #004700",
"r 	c #004A00",
"s 	c #004F00",
"t 	c #004800",
"u 	c #003E00",
"v 	c #006200",
"w 	c #007B00",
"x 	c #008100",
"y 	c #007000",
"z 	c #006000",
"A 	c #005400",
"B 	c #004C00",
"C 	c #005700",
"D 	c #005E00",
"E 	c #005C00",
"F 	c #005600",
"G 	c #004500",
"H 	c #007100",
"I 	c #009400",
"J 	c #009900",
"K 	c #007F00",
"L 	c #006900",
"M 	c #005A00",
"N 	c #006F00",
"O 	c #006B00",
"P 	c #004900",
"Q 	c #007800",
"R 	c #009D00",
"S 	c #00A200",
"T 	c #008600",
"U 	c #006E00",
"V 	c #006300",
"W 	c #007A00",
"X 	c #008400",
"Y 	c #005D00",
"Z 	c #007700",
"` 	c #009800",
" .	c #008500",
"..	c #008C00",
"+.	c #008900",
"@.	c #007400",
"#.	c #006400",
"$.	c #005800",
"%.	c #008A00",
"&.	c #007E00",
"*.	c #005B00",
"=.	c #007600",
"-.	c #009700",
";.	c #00A500",
">.	c #009300",
",.	c #006800",
"'.	c #005300",
").	c #006A00",
"!.	c #007C00",
"~.	c #007500",
"{.	c #005900",
"].	c #007900",
"^.	c #009500",
"/.	c #007D00",
"(.	c #009100",
"_.	c #009C00",
":.	c #009000",
"<.	c #006C00",
"[.	c #006600",
"}.	c #008700",
"|.	c #008800",
"1.	c #008000",
"2.	c #006500",
"3.	c #007300",
"4.	c #007200",
"5.	c #006D00",
"6.	c #004E00",
"7.	c #009E00",
"8.	c #00CB00",
"9.	c #00D600",
"0.	c #00B100",
"a.	c #00BC00",
"b.	c #008E00",
"                                                                ",
"                                                                ",
"                                                                ",
"                                                                ",
"      . + + @ # $ % & * = - ; ; > , + @ # ' ) * = - ; > =       ",
"      . + @ # $ ) ! = - > ~ { { { , @ ] % ! = > { ^ / / >       ",
"      . @ # ' ) * - > { / ( ( ( ( ] ] % * ; ^ _ : < < : /       ",
"      [ # ' ) } ; { ( | : < < : : % ) } > _ 1 2 3 3 2 4 |       ",
"      @ ' ) } ; / : 5 4 4 4 6 6 5 ! } > | 2 7 8 8 9 7 0 5       ",
"      # ) * ; / < 2 0 a a 0 b 3 2 = > _ 3 8 c d e f g 9 3       ",
"      $ * ; ^ < h i j g j k i a b ~ / 6 k l m n o p c q a       ",
"      ) - { : 3 k r s e c t j 9 u / < 0 f v w x y z A B 9       ",
"      ! ~ _ 4 i B C D E F s r G k : 4 k A H I J K L M e j       ",
"      } / 1 0 q C n N O z C s P G 5 b q M Q R S T U o A q       ",
"      - | 4 9 s V W X w O Y A c t 2 u r E Z I `  .y m C r       ",
"      ~ < b g F U ..J +.@.#.$.e f h i B E H  .%.&.U v $.f       ",
"      ^ 6 u r *.=.-.;.>.W ,.E '.c 0 k c M ).Q !.~.O m {.B       ",
"      ( 3 9 c o ].` ;.^./.O o F s u 8 B $.#.U H U n o $.B       ",
"      | b 8 s z Q (._.:./.<.z C l 7 8 B p o [.L n V Y C B       ",
"      : 0 G e z @.}.:.|.W <.m {.d 7 8 f '.M z V v o *.F B       ",
"      1 u g l D N &.X 1.=.O m {.'.i 8 r e F *.D D E {.p f       ",
"      5 7 q l E ).~.w Q H ,.z M '.b a k t c e d '.'.d e t       ",
"      6 i q e M 2.U 3.4.5.[.o {.A % $ * ~ / / > _ h k G i       ",
"      4 9 q s $.m ,.<.<.,.V D {.A - ~ 4 i 7 h 5 k F m Y s       ",
"      4 9 q 6.F Y V n n 2.m E $.'.| 0 *.5.$.P 8 Y (.7.!.m       ",
"      2 9 q c A M o v V m D *.C '.3 B &.-.5.A l =.8.9.^.N       ",
"      2 9 q B d C E D o D E {.F '.7 l H x <.$.M !.0.a.` ~.      ",
"      3 9 g f e p {.*.E *.M $.p d k 6.z ,.v C D Z >._.b.~.      ",
"      1 0 i j P B s l d d l s c f a G s A '.6.C L ].K W L       ",
"                                                                ",
"                                                                ",
"                                                                "};
